<?xml version="1.0" encoding="utf-8"?>
<!-- Generator: Adobe Illustrator 19.2.1, SVG Export Plug-In . SVG Version: 6.00 Build 0)  -->
<svg version="1.1" id="Layer_1" xmlns="http://www.w3.org/2000/svg" xmlns:xlink="http://www.w3.org/1999/xlink" x="0px" y="0px"
	 viewBox="0 0 621.1 100.3" style="enable-background:new 0 0 621.1 100.3;" xml:space="preserve">
<style type="text/css">
	.st0{fill:#ABB1B7;}
	.st1{font-family:'AvenirNext-DemiBold';}
	.st2{font-size:80px;}
	.st3{letter-spacing:4;}
	.st4{fill:#EA5A46;}
	.st5{fill:#507EBF;}
	.st6{fill:#54B8E8;}
	.st7{fill:#F2B457;}
</style>
<text transform="matrix(1 0 0 1 133.2678 81.1688)" class="st0 st1 st2 st3">Rescue Tech</text>
<g>
	<path class="st4" d="M65.8,74H0c0,14.5,11.8,26.3,26.3,26.3h13.2C54,100.3,65.8,88.5,65.8,74L65.8,74z"/>
	<path class="st5" d="M72.4,34.5v65.8h0c14.5,0,26.3-11.8,26.3-26.3V60.8C98.7,46.3,86.9,34.5,72.4,34.5L72.4,34.5z"/>
	<path class="st6" d="M72.4,1.6H59.2c-14.5,0-26.3,11.8-26.3,26.3v0h65.8v0C98.7,13.4,86.9,1.6,72.4,1.6z"/>
	<path class="st6" d="M98.7,41.1V27.9H72.4h0C83.1,27.9,92.7,33.1,98.7,41.1z"/>
	<path class="st5" d="M59.2,100.3h13.2V74v0C72.4,84.8,67.2,94.3,59.2,100.3z"/>
	<path class="st4" d="M0,60.8L0,74h26.3h0C15.6,74,6,68.8,0,60.8z"/>
	<g>
		<path class="st7" d="M0,27.9v13.2c0,14.5,11.8,26.3,26.3,26.3h0V1.6h0C11.8,1.6,0,13.4,0,27.9z"/>
		<path class="st7" d="M26.3,1.6v26.3c0-10.8,5.2-20.3,13.2-26.3H26.3z"/>
	</g>
</g>
</svg>
