<?xml version="1.0" encoding="utf-8"?>
<!-- Generator: Adobe Illustrator 19.2.1, SVG Export Plug-In . SVG Version: 6.00 Build 0)  -->
<svg version="1.1" id="Layer_1" xmlns="http://www.w3.org/2000/svg" xmlns:xlink="http://www.w3.org/1999/xlink" x="0px" y="0px"
	 viewBox="0 0 947.3 194" style="enable-background:new 0 0 947.3 194;" xml:space="preserve">
<style type="text/css">
	.st0{fill:#F29545;}
	.st1{fill:#ED4944;}
	.st2{fill:#DA3B33;}
	.st3{fill:#5171B7;}
	.st4{fill:#52B9E9;}
	.st5{fill:#4765AD;}
	.st6{fill:#369ED6;}
	.st7{fill:#D77C2F;}
	.st8{fill:#894E23;}
	.st9{fill:#74401D;}
	.st10{fill:#283673;}
	.st11{fill:#253E88;}
	.st12{fill:#313131;}
</style>
<g>
	<polygon class="st0" points="0.1,48.6 0.1,141.4 48.7,190 48.7,0 	"/>
	<polygon class="st1" points="0.1,141.4 48.7,190 97.9,190 141.5,190 190.1,190 190.1,141.4 	"/>
	<polygon class="st2" points="48.7,190 97.9,190 141.5,190 190.1,190 190.1,165.7 24.4,165.7 	"/>
	<polygon class="st3" points="141.5,190 190.1,190 190.1,141.4 190.1,104.1 190.1,48.6 141.5,0 	"/>
	<polygon class="st4" points="48.7,0 0.1,48.6 190.1,48.6 141.5,0 	"/>
	<rect x="141.5" y="48.6" class="st5" width="24.3" height="141.4"/>
	<polygon class="st6" points="24.4,24.3 0.1,48.6 190.1,48.6 165.8,24.3 	"/>
	<rect x="24.4" y="48.6" class="st7" width="24.3" height="92.8"/>
	<polygon class="st8" points="0.1,48.6 24.4,72.9 24.4,48.6 	"/>
	<polygon class="st9" points="24.4,48.6 24.4,72.9 48.7,97.2 48.7,48.6 	"/>
	<polygon class="st10" points="165.8,48.6 141.5,48.6 165.8,72.9 	"/>
	<polygon class="st11" points="165.8,48.6 165.8,72.9 190.1,97.2 190.1,48.6 	"/>
	<g>
		<path class="st12" d="M255.4,58.3c3.2,1.4,5.9,3.4,8.2,6.1c1.9,2.2,3.3,4.7,4.4,7.4c1.1,2.7,1.6,5.8,1.6,9.2c0,4.2-1,8.2-3.1,12.2
			s-5.6,6.9-10.4,8.5c4,1.6,6.9,3.9,8.6,6.9s2.5,7.5,2.5,13.7v5.9c0,4,0.2,6.7,0.5,8.1c0.5,2.3,1.6,3.9,3.4,5v2.2h-20.2
			c-0.6-1.9-0.9-3.5-1.2-4.7c-0.5-2.5-0.7-5-0.8-7.5l-0.1-8.1c-0.1-5.6-1-9.3-2.9-11.2s-5.3-2.8-10.4-2.8h-17.8v34.3h-17.9V56h41.8
			C247.6,56.1,252.2,56.9,255.4,58.3z M217.6,71.2v23.5h19.7c3.9,0,6.8-0.5,8.8-1.4c3.5-1.7,5.2-4.9,5.2-9.8c0-5.3-1.7-8.9-5-10.7
			c-1.9-1-4.7-1.5-8.5-1.5L217.6,71.2L217.6,71.2z"/>
		<path class="st12" d="M323,80.1c4.5,2,8.2,5.2,11.2,9.6c2.6,3.8,4.4,8.3,5.2,13.4c0.5,3,0.6,7.2,0.6,12.8h-47.1
			c0.3,6.5,2.5,11,6.8,13.6c2.6,1.6,5.7,2.4,9.3,2.4c3.9,0,7-1,9.4-3c1.3-1.1,2.5-2.6,3.5-4.4h17.3c-0.5,3.8-2.5,7.7-6.3,11.7
			c-5.8,6.3-13.9,9.4-24.3,9.4c-8.6,0-16.2-2.7-22.8-8c-6.6-5.3-9.9-13.9-9.9-25.9c0-11.2,3-19.8,8.9-25.8s13.6-9,23.1-9
			C313.4,77.1,318.5,78.1,323,80.1z M297.7,94.7c-2.4,2.5-3.9,5.8-4.5,10h29.1c-0.3-4.5-1.8-7.9-4.5-10.2s-6-3.5-10-3.5
			C303.5,91,300.1,92.2,297.7,94.7z"/>
		<path class="st12" d="M363.9,122.8c0.4,3,1.1,5.1,2.3,6.4c2.1,2.3,6,3.4,11.7,3.4c3.3,0,6-0.5,8-1.5s3-2.5,3-4.4s-0.8-3.3-2.4-4.3
			s-7.5-2.7-17.7-5.1c-7.3-1.8-12.5-4.1-15.5-6.8c-3-2.7-4.5-6.6-4.5-11.6c0-6,2.3-11.1,7-15.4s11.3-6.4,19.8-6.4
			c8.1,0,14.7,1.6,19.8,4.8c5.1,3.2,8,8.8,8.8,16.7h-16.9c-0.2-2.2-0.9-3.9-1.8-5.2c-1.9-2.3-5-3.4-9.5-3.4c-3.7,0-6.3,0.6-7.9,1.7
			s-2.4,2.5-2.4,4c0,1.9,0.8,3.3,2.5,4.2s7.5,2.5,17.7,4.7c6.7,1.6,11.8,4,15.1,7.2c3.3,3.2,5,7.3,5,12.2c0,6.4-2.4,11.6-7.2,15.7
			s-12.2,6.1-22.1,6.1c-10.2,0-17.7-2.1-22.6-6.4s-7.3-9.8-7.3-16.4h17.1V122.8z"/>
		<path class="st12" d="M456.9,102c-0.3-2.4-1.1-4.6-2.4-6.5c-1.9-2.6-4.9-3.9-8.9-3.9c-5.7,0-9.6,2.8-11.7,8.5c-1.1,3-1.7,7-1.7,12
			c0,4.7,0.6,8.5,1.7,11.4c2,5.4,5.8,8.1,11.4,8.1c4,0,6.8-1.1,8.4-3.2c1.7-2.1,2.7-4.9,3-8.3H474c-0.4,5.1-2.3,10-5.6,14.6
			c-5.3,7.4-13.2,11.1-23.6,11.1s-18.1-3.1-23-9.3c-4.9-6.2-7.4-14.2-7.4-24c0-11.1,2.7-19.7,8.1-25.9c5.4-6.2,12.9-9.3,22.4-9.3
			c8.1,0,14.8,1.8,19.9,5.5c5.2,3.6,8.2,10.1,9.2,19.3h-17.1L456.9,102L456.9,102z"/>
		<path class="st12" d="M502.6,78.8v39c0,3.7,0.4,6.4,1.3,8.3c1.5,3.3,4.5,4.9,9,4.9c5.7,0,9.7-2.3,11.8-7c1.1-2.5,1.7-5.9,1.7-10
			V78.8h17.1v64.7h-16.4v-9.1c-0.2,0.2-0.6,0.8-1.2,1.8c-0.6,1-1.4,1.9-2.2,2.6c-2.6,2.4-5.2,4-7.7,4.9s-5.4,1.3-8.7,1.3
			c-9.5,0-16-3.4-19.3-10.3c-1.9-3.8-2.8-9.4-2.8-16.8v-39L502.6,78.8L502.6,78.8z"/>
		<path class="st12" d="M602,80.1c4.5,2,8.2,5.2,11.2,9.6c2.6,3.8,4.4,8.3,5.2,13.4c0.5,3,0.6,7.2,0.6,12.8H572
			c0.3,6.5,2.5,11,6.8,13.6c2.6,1.6,5.7,2.4,9.3,2.4c3.9,0,7-1,9.4-3c1.3-1.1,2.5-2.6,3.5-4.4h17.3c-0.5,3.8-2.5,7.7-6.3,11.7
			c-5.8,6.3-13.9,9.4-24.3,9.4c-8.6,0-16.2-2.7-22.8-8s-9.9-13.9-9.9-25.9c0-11.2,3-19.8,8.9-25.8s13.6-9,23.1-9
			C592.4,77.1,597.5,78.1,602,80.1z M576.7,94.7c-2.4,2.5-3.9,5.8-4.5,10h29.1c-0.3-4.5-1.8-7.9-4.5-10.2s-6-3.5-10-3.5
			C582.5,91,579.1,92.2,576.7,94.7z"/>
		<path class="st12" d="M728.5,56v15.5h-26.2v72h-18.4v-72h-26.3V56H728.5z"/>
		<path class="st12" d="M771.1,80.1c4.5,2,8.2,5.2,11.2,9.6c2.6,3.8,4.4,8.3,5.2,13.4c0.5,3,0.6,7.2,0.6,12.8H741
			c0.3,6.5,2.5,11,6.8,13.6c2.6,1.6,5.7,2.4,9.3,2.4c3.9,0,7-1,9.4-3c1.3-1.1,2.5-2.6,3.5-4.4h17.1c-0.5,3.8-2.5,7.7-6.3,11.7
			c-5.8,6.3-13.9,9.4-24.3,9.4c-8.6,0-16.2-2.7-22.8-8s-9.9-13.9-9.9-25.9c0-11.2,3-19.8,8.9-25.8s13.6-9,23.1-9
			C761.5,77.1,766.6,78.1,771.1,80.1z M745.8,94.7c-2.4,2.5-3.9,5.8-4.5,10h29.1c-0.3-4.5-1.8-7.9-4.5-10.2s-6-3.5-10-3.5
			C751.6,91,748.2,92.2,745.8,94.7z"/>
		<path class="st12" d="M840,102c-0.3-2.4-1.1-4.6-2.4-6.5c-1.9-2.6-4.9-3.9-8.9-3.9c-5.7,0-9.6,2.8-11.7,8.5c-1.1,3-1.7,7-1.7,12
			c0,4.7,0.6,8.5,1.7,11.4c2,5.4,5.8,8.1,11.4,8.1c4,0,6.8-1.1,8.4-3.2c1.7-2.1,2.7-4.9,3-8.3h17.3c-0.4,5.1-2.3,10-5.6,14.6
			c-5.3,7.4-13.2,11.1-23.6,11.1c-10.4,0-18.1-3.1-23-9.3c-4.9-6.2-7.4-14.2-7.4-24c0-11.1,2.7-19.7,8.1-25.9
			c5.4-6.2,12.9-9.3,22.4-9.3c8.1,0,14.8,1.8,19.9,5.5c5.2,3.6,8.2,10.1,9.2,19.3h-17.1L840,102L840,102z"/>
		<path class="st12" d="M915.2,79.2c3.2,1.4,5.9,3.5,8,6.4c1.8,2.4,2.9,4.9,3.2,7.5c0.4,2.6,0.6,6.7,0.6,12.5v38h-17.3v-39.4
			c0-3.5-0.6-6.3-1.8-8.4c-1.5-3-4.4-4.5-8.7-4.5c-4.4,0-7.8,1.5-10.1,4.5s-3.4,7.3-3.4,12.8v35h-16.9V56.3h16.9v30.8
			c2.4-3.8,5.3-6.4,8.5-7.9s6.6-2.2,10.1-2.2C908.4,77.1,912,77.8,915.2,79.2z"/>
	</g>
	<g>
		<path class="st12" d="M198.4,150.4h5.4v16.2h20.1v-16.2h5.4v39.1h-5.4v-18.3h-20.1v18.3h-5.4V150.4z"/>
		<path class="st12" d="M253.6,161.8c1.9,1,3.3,2.2,4.3,3.7c1,1.4,1.6,3.1,1.9,5c0.3,1.3,0.4,3.4,0.4,6.3h-20.7c0.1,2.9,0.8,5.2,2,7
			c1.3,1.8,3.2,2.6,5.9,2.6c2.5,0,4.5-0.8,5.9-2.5c0.8-1,1.4-2.1,1.8-3.3h4.7c-0.1,1-0.5,2.2-1.2,3.5s-1.5,2.3-2.3,3.2
			c-1.4,1.4-3.2,2.4-5.4,2.9c-1.1,0.3-2.4,0.4-3.9,0.4c-3.5,0-6.5-1.3-9-3.9s-3.7-6.2-3.7-10.8s1.2-8.3,3.7-11.2
			c2.5-2.9,5.7-4.3,9.7-4.3C249.7,160.3,251.7,160.8,253.6,161.8z M255.3,173c-0.2-2.1-0.6-3.7-1.3-5c-1.3-2.3-3.5-3.5-6.5-3.5
			c-2.2,0-4,0.8-5.5,2.4s-2.3,3.6-2.3,6.1H255.3z"/>
		<path class="st12" d="M280.5,172.2c1.1-0.1,1.8-0.6,2.2-1.4c0.2-0.4,0.3-1,0.3-1.8c0-1.6-0.6-2.8-1.7-3.6c-1.2-0.7-2.8-1.1-5-1.1
			c-2.5,0-4.3,0.7-5.3,2c-0.6,0.7-1,1.9-1.1,3.3h-4.5c0.1-3.5,1.2-6,3.4-7.4c2.2-1.4,4.7-2.1,7.6-2.1c3.4,0,6.1,0.6,8.2,1.9
			s3.1,3.3,3.1,6v16.4c0,0.5,0.1,0.9,0.3,1.2c0.2,0.3,0.6,0.5,1.3,0.5c0.2,0,0.5,0,0.7,0c0.3,0,0.5-0.1,0.9-0.1v3.5
			c-0.7,0.2-1.3,0.3-1.7,0.4c-0.4,0.1-0.9,0.1-1.6,0.1c-1.7,0-2.8-0.6-3.6-1.8c-0.4-0.6-0.7-1.5-0.8-2.6c-1,1.3-2.4,2.4-4.2,3.3
			c-1.8,0.9-3.8,1.4-6,1.4c-2.6,0-4.8-0.8-6.5-2.4s-2.5-3.6-2.5-6c0-2.6,0.8-4.7,2.5-6.1s3.8-2.3,6.5-2.7L280.5,172.2z M270.4,185.2
			c1,0.8,2.2,1.2,3.6,1.2c1.7,0,3.3-0.4,4.9-1.2c2.7-1.3,4-3.4,4-6.4V175c-0.6,0.4-1.3,0.7-2.3,0.9c-0.9,0.2-1.8,0.4-2.7,0.5
			l-2.9,0.4c-1.7,0.2-3,0.6-3.9,1.1c-1.5,0.8-2.2,2.2-2.2,4C268.9,183.3,269.4,184.4,270.4,185.2z"/>
		<path class="st12" d="M294.5,150.4h4.8v39.1h-4.8V150.4z"/>
		<path class="st12" d="M306.4,153h4.8v8h4.6v3.9h-4.6v18.6c0,1,0.3,1.7,1,2c0.4,0.2,1,0.3,1.9,0.3c0.2,0,0.5,0,0.7,0
			c0.3,0,0.6,0,0.9-0.1v3.8c-0.6,0.2-1.1,0.3-1.7,0.3c-0.6,0.1-1.2,0.1-1.9,0.1c-2.2,0-3.8-0.6-4.6-1.7c-0.8-1.1-1.2-2.6-1.2-4.5
			v-18.9h-3.9V161h3.9v-8H306.4z"/>
		<path class="st12" d="M319.5,150.3h4.8v14.6c1.1-1.4,2.2-2.4,3.1-3c1.5-1,3.5-1.5,5.8-1.5c4.1,0,6.9,1.4,8.4,4.3
			c0.8,1.6,1.2,3.8,1.2,6.6v18.3h-4.9v-18c0-2.1-0.3-3.6-0.8-4.6c-0.9-1.6-2.5-2.3-4.9-2.3c-2,0-3.8,0.7-5.4,2
			c-1.6,1.4-2.4,3.9-2.4,7.7v15.1h-4.8v-39.2H319.5L319.5,150.3z"/>
		<path class="st12" d="M378.2,172.2c1.1-0.1,1.8-0.6,2.2-1.4c0.2-0.4,0.3-1,0.3-1.8c0-1.6-0.6-2.8-1.7-3.6c-1.2-0.7-2.8-1.1-5-1.1
			c-2.5,0-4.3,0.7-5.3,2c-0.6,0.7-1,1.9-1.1,3.3h-4.5c0.1-3.5,1.2-6,3.4-7.4c2.2-1.4,4.7-2.1,7.6-2.1c3.4,0,6.1,0.6,8.2,1.9
			s3.1,3.3,3.1,6v16.4c0,0.5,0.1,0.9,0.3,1.2c0.2,0.3,0.6,0.5,1.3,0.5c0.2,0,0.5,0,0.7,0c0.3,0,0.5-0.1,0.9-0.1v3.5
			c-0.7,0.2-1.3,0.3-1.7,0.4c-0.4,0.1-0.9,0.1-1.6,0.1c-1.7,0-2.8-0.6-3.6-1.8c-0.4-0.6-0.7-1.5-0.8-2.6c-1,1.3-2.4,2.4-4.2,3.3
			c-1.8,0.9-3.8,1.4-6,1.4c-2.6,0-4.8-0.8-6.5-2.4s-2.5-3.6-2.5-6c0-2.6,0.8-4.7,2.5-6.1s3.8-2.3,6.5-2.7L378.2,172.2z M368.1,185.2
			c1,0.8,2.2,1.2,3.6,1.2c1.7,0,3.3-0.4,4.9-1.2c2.7-1.3,4-3.4,4-6.4V175c-0.6,0.4-1.3,0.7-2.3,0.9c-0.9,0.2-1.8,0.4-2.7,0.5
			l-2.9,0.4c-1.7,0.2-3,0.6-3.9,1.1c-1.5,0.8-2.2,2.2-2.2,4C366.6,183.3,367.1,184.4,368.1,185.2z"/>
		<path class="st12" d="M392.1,161h4.6v4c1.3-1.7,2.8-2.9,4.3-3.6s3.2-1.1,5-1.1c4,0,6.8,1.4,8.2,4.2c0.8,1.5,1.2,3.8,1.2,6.6v18.3
			h-4.9v-18c0-1.7-0.3-3.1-0.8-4.2c-0.9-1.8-2.4-2.7-4.6-2.7c-1.1,0-2.1,0.1-2.8,0.3c-1.3,0.4-2.5,1.2-3.5,2.3
			c-0.8,0.9-1.3,1.9-1.6,2.9c-0.2,1-0.4,2.4-0.4,4.3v14.9h-4.7V161z"/>
		<path class="st12" d="M437,161.9c0.8,0.5,1.8,1.5,2.9,2.8v-14.4h4.6v39.2h-4.3v-4c-1.1,1.8-2.4,3-4,3.8c-1.5,0.8-3.3,1.2-5.2,1.2
			c-3.2,0-5.9-1.3-8.2-4c-2.3-2.7-3.5-6.2-3.5-10.7c0-4.2,1.1-7.8,3.2-10.8s5.1-4.6,9.1-4.6C433.7,160.5,435.5,160.9,437,161.9z
			 M426.3,183.2c1.3,2.1,3.4,3.1,6.2,3.1c2.2,0,4-1,5.4-2.9s2.1-4.6,2.1-8.2s-0.7-6.3-2.2-8s-3.3-2.6-5.4-2.6
			c-2.4,0-4.3,0.9-5.8,2.8c-1.5,1.8-2.2,4.6-2.2,8.1C424.4,178.6,425,181.2,426.3,183.2z"/>
		<path class="st12" d="M468.8,176.9c0.1,2.2,0.6,4,1.5,5.4c1.7,2.6,4.7,3.9,9,3.9c1.9,0,3.7-0.3,5.2-0.9c3-1.1,4.6-3.1,4.6-5.9
			c0-2.1-0.6-3.6-1.9-4.6c-1.3-0.9-3.4-1.7-6.1-2.3l-5.1-1.2c-3.4-0.8-5.7-1.6-7.1-2.6c-2.4-1.6-3.6-4.1-3.6-7.3
			c0-3.5,1.2-6.4,3.5-8.7c2.4-2.3,5.7-3.4,10.1-3.4c4,0,7.4,1,10.2,3c2.8,2,4.2,5.1,4.2,9.5h-5c-0.3-2.1-0.8-3.7-1.6-4.8
			c-1.5-2-4.2-3.1-7.9-3.1c-3,0-5.1,0.7-6.5,2c-1.3,1.3-2,2.8-2,4.6c0,1.9,0.8,3.3,2.3,4.2c1,0.6,3.3,1.3,6.9,2.1l5.3,1.3
			c2.6,0.6,4.5,1.4,5.9,2.5c2.4,1.8,3.6,4.5,3.6,8c0,4.3-1.5,7.4-4.6,9.3s-6.6,2.8-10.7,2.8c-4.7,0-8.5-1.2-11.1-3.7
			c-2.7-2.5-4-5.8-3.9-10L468.8,176.9L468.8,176.9L468.8,176.9z"/>
		<path class="st12" d="M515.3,172.2c1.1-0.1,1.8-0.6,2.2-1.4c0.2-0.4,0.3-1,0.3-1.8c0-1.6-0.6-2.8-1.7-3.6c-1.2-0.7-2.8-1.1-5-1.1
			c-2.5,0-4.3,0.7-5.3,2c-0.6,0.7-1,1.9-1.1,3.3h-4.5c0.1-3.5,1.2-6,3.4-7.4c2.2-1.4,4.7-2.1,7.6-2.1c3.3,0,6.1,0.6,8.2,1.9
			s3.1,3.3,3.1,6v16.4c0,0.5,0.1,0.9,0.3,1.2s0.6,0.5,1.3,0.5c0.2,0,0.5,0,0.7,0c0.3,0,0.5-0.1,0.9-0.1v3.5
			c-0.7,0.2-1.3,0.3-1.7,0.4s-0.9,0.1-1.6,0.1c-1.7,0-2.8-0.6-3.6-1.8c-0.4-0.6-0.7-1.5-0.8-2.6c-1,1.3-2.4,2.4-4.2,3.3
			s-3.8,1.4-6,1.4c-2.6,0-4.8-0.8-6.5-2.4s-2.5-3.6-2.5-6c0-2.6,0.8-4.7,2.5-6.1c1.7-1.5,3.8-2.3,6.5-2.7L515.3,172.2z M505.2,185.2
			c1,0.8,2.2,1.2,3.6,1.2c1.7,0,3.3-0.4,4.9-1.2c2.7-1.3,4-3.4,4-6.4V175c-0.6,0.4-1.3,0.7-2.3,0.9c-0.9,0.2-1.8,0.4-2.7,0.5
			l-2.9,0.4c-1.7,0.2-3,0.6-3.9,1.1c-1.5,0.8-2.2,2.2-2.2,4C503.7,183.3,504.2,184.4,505.2,185.2z"/>
		<path class="st12" d="M531.5,152.3c1.1-1.6,3.3-2.4,6.5-2.4c0.3,0,0.6,0,0.9,0c0.3,0,0.7,0,1.1,0.1v4.4c-0.5,0-0.9-0.1-1.1-0.1
			c-0.2,0-0.4,0-0.6,0c-1.5,0-2.4,0.4-2.6,1.1c-0.3,0.8-0.4,2.7-0.4,5.8h4.8v3.8h-4.8v24.6h-4.7V165h-4v-3.8h4v-4.5
			C530.5,154.7,530.9,153.2,531.5,152.3z"/>
		<path class="st12" d="M561,161.8c1.9,1,3.3,2.2,4.3,3.7c1,1.4,1.6,3.1,1.9,5c0.3,1.3,0.4,3.4,0.4,6.3H547c0.1,2.9,0.8,5.2,2,7
			c1.3,1.8,3.2,2.6,5.9,2.6c2.5,0,4.5-0.8,5.9-2.5c0.8-1,1.4-2.1,1.8-3.3h4.7c-0.1,1-0.5,2.2-1.2,3.5s-1.5,2.3-2.3,3.2
			c-1.4,1.4-3.2,2.4-5.4,2.9c-1.1,0.3-2.4,0.4-3.9,0.4c-3.5,0-6.5-1.3-9-3.9s-3.7-6.2-3.7-10.8s1.2-8.3,3.7-11.2
			c2.5-2.9,5.7-4.3,9.7-4.3C557.1,160.3,559.1,160.8,561,161.8z M562.7,173c-0.2-2.1-0.6-3.7-1.3-5c-1.3-2.3-3.5-3.5-6.5-3.5
			c-2.2,0-4,0.8-5.5,2.4s-2.3,3.6-2.3,6.1H562.7z"/>
		<path class="st12" d="M573.5,153h4.8v8h4.6v3.9h-4.6v18.6c0,1,0.3,1.7,1,2c0.4,0.2,1,0.3,1.9,0.3c0.2,0,0.5,0,0.7,0
			c0.3,0,0.6,0,0.9-0.1v3.8c-0.5,0.2-1.1,0.3-1.7,0.3c-0.6,0.1-1.2,0.1-1.9,0.1c-2.2,0-3.8-0.6-4.6-1.7s-1.2-2.6-1.2-4.5v-18.9h-3.9
			V161h3.9L573.5,153L573.5,153z"/>
		<path class="st12" d="M604.5,161h5.3c-0.7,1.8-2.2,6-4.5,12.5c-1.7,4.9-3.2,8.9-4.4,12c-2.8,7.3-4.7,11.7-5.9,13.3
			c-1.1,1.6-3.1,2.4-5.9,2.4c-0.7,0-1.2,0-1.6-0.1c-0.4-0.1-0.8-0.2-1.3-0.3v-4.4c0.8,0.2,1.4,0.4,1.8,0.4c0.4,0.1,0.7,0.1,1,0.1
			c0.9,0,1.5-0.1,2-0.4c0.4-0.3,0.8-0.7,1.1-1.1c0.1-0.1,0.4-0.9,1-2.2c0.6-1.3,0.9-2.3,1.2-2.9L583.8,161h5.4l7.6,23.2L604.5,161z"
			/>
		<path class="st12" d="M631.1,176.9c0.1,2.2,0.6,4,1.5,5.4c1.7,2.6,4.7,3.9,9,3.9c1.9,0,3.7-0.3,5.2-0.9c3-1.1,4.6-3.1,4.6-5.9
			c0-2.1-0.6-3.6-1.9-4.6c-1.3-0.9-3.4-1.7-6.1-2.3l-5.1-1.2c-3.4-0.8-5.7-1.6-7.1-2.6c-2.4-1.6-3.6-4.1-3.6-7.3
			c0-3.5,1.2-6.4,3.5-8.7c2.4-2.3,5.7-3.4,10.1-3.4c4,0,7.4,1,10.2,3s4.2,5.1,4.2,9.5h-5c-0.3-2.1-0.8-3.7-1.6-4.8
			c-1.5-2-4.2-3.1-7.9-3.1c-3,0-5.1,0.7-6.5,2c-1.3,1.3-2,2.8-2,4.6c0,1.9,0.8,3.3,2.3,4.2c1,0.6,3.3,1.3,6.9,2.1l5.3,1.3
			c2.6,0.6,4.5,1.4,5.9,2.5c2.4,1.8,3.6,4.5,3.6,8c0,4.3-1.5,7.4-4.6,9.3s-6.6,2.8-10.7,2.8c-4.7,0-8.5-1.2-11.1-3.7
			c-2.7-2.5-4-5.8-3.9-10L631.1,176.9L631.1,176.9L631.1,176.9z"/>
		<path class="st12" d="M680,161.8c1.9,1,3.3,2.2,4.3,3.7c1,1.4,1.6,3.1,1.9,5c0.3,1.3,0.4,3.4,0.4,6.3H666c0.1,2.9,0.8,5.2,2,7
			c1.3,1.8,3.2,2.6,5.9,2.6c2.5,0,4.5-0.8,5.9-2.5c0.8-1,1.4-2.1,1.8-3.3h4.7c-0.1,1-0.5,2.2-1.2,3.5s-1.5,2.3-2.3,3.2
			c-1.4,1.4-3.2,2.4-5.4,2.9c-1.1,0.3-2.4,0.4-3.9,0.4c-3.5,0-6.5-1.3-9-3.9s-3.7-6.2-3.7-10.8s1.2-8.3,3.7-11.2
			c2.5-2.9,5.7-4.3,9.7-4.3C676.1,160.3,678.1,160.8,680,161.8z M681.7,173c-0.2-2.1-0.6-3.7-1.3-5c-1.3-2.3-3.5-3.5-6.5-3.5
			c-2.2,0-4,0.8-5.5,2.4s-2.3,3.6-2.3,6.1H681.7z"/>
		<path class="st12" d="M691.7,161h4.6v4.9c0.4-1,1.3-2.1,2.7-3.5c1.5-1.4,3.1-2.1,5-2.1c0.1,0,0.2,0,0.5,0s0.6,0.1,1.1,0.1v5.1
			c-0.3-0.1-0.5-0.1-0.8-0.1c-0.2,0-0.5,0-0.8,0c-2.4,0-4.3,0.8-5.6,2.3c-1.3,1.6-1.9,3.3-1.9,5.4v16.4h-4.8V161z"/>
		<path class="st12" d="M711,161l7.6,23.2l7.9-23.2h5.2l-10.6,28.5H716L705.4,161H711z"/>
		<path class="st12" d="M734.9,150.4h4.9v5.4h-4.9V150.4z M734.9,161.1h4.9v28.4h-4.9V161.1z"/>
		<path class="st12" d="M764.7,162.5c2,1.6,3.2,4.2,3.6,8.1h-4.7c-0.3-1.8-0.9-3.2-1.9-4.4s-2.6-1.7-4.9-1.7c-3.1,0-5.2,1.5-6.5,4.5
			c-0.9,1.9-1.3,4.3-1.3,7.2s0.6,5.3,1.8,7.2c1.2,2,3.1,2.9,5.7,2.9c2,0,3.6-0.6,4.7-1.8c1.2-1.2,2-2.9,2.4-5h4.7
			c-0.5,3.8-1.9,6.5-4,8.3c-2.1,1.7-4.9,2.6-8.2,2.6c-3.7,0-6.7-1.4-8.9-4.1s-3.3-6.1-3.3-10.2c0-5,1.2-8.9,3.6-11.7
			c2.4-2.8,5.5-4.2,9.3-4.2C760.1,160.2,762.7,160.9,764.7,162.5z"/>
		<path class="st12" d="M789.7,161.8c1.9,1,3.3,2.2,4.3,3.7c1,1.4,1.6,3.1,1.9,5c0.3,1.3,0.4,3.4,0.4,6.3h-20.7c0.1,2.9,0.8,5.2,2,7
			c1.3,1.8,3.2,2.6,5.9,2.6c2.5,0,4.5-0.8,5.9-2.5c0.8-1,1.4-2.1,1.8-3.3h4.7c-0.1,1-0.5,2.2-1.2,3.5s-1.5,2.3-2.3,3.2
			c-1.4,1.4-3.2,2.4-5.4,2.9c-1.1,0.3-2.4,0.4-3.9,0.4c-3.5,0-6.5-1.3-9-3.9s-3.7-6.2-3.7-10.8s1.2-8.3,3.7-11.2
			c2.5-2.9,5.7-4.3,9.7-4.3C785.9,160.3,787.8,160.8,789.7,161.8z M791.5,173c-0.2-2.1-0.6-3.7-1.3-5c-1.3-2.3-3.5-3.5-6.5-3.5
			c-2.2,0-4,0.8-5.5,2.4s-2.3,3.6-2.3,6.1H791.5z"/>
		<path class="st12" d="M804.2,180.5c0.1,1.6,0.6,2.8,1.2,3.7c1.2,1.5,3.4,2.3,6.4,2.3c1.8,0,3.4-0.4,4.8-1.2c1.4-0.8,2.1-2,2.1-3.6
			c0-1.2-0.5-2.2-1.7-2.8c-0.7-0.4-2.1-0.8-4.2-1.4l-3.9-1c-2.5-0.6-4.3-1.3-5.5-2c-2.1-1.3-3.1-3.1-3.1-5.4c0-2.7,1-4.9,3-6.5
			c2-1.7,4.6-2.5,7.9-2.5c4.4,0,7.5,1.3,9.4,3.8c1.2,1.6,1.8,3.3,1.8,5.2h-4.5c-0.1-1.1-0.5-2.1-1.2-2.9c-1.1-1.3-3.1-1.9-5.9-1.9
			c-1.9,0-3.3,0.3-4.2,1c-1,0.7-1.4,1.6-1.4,2.7c0,1.2,0.6,2.2,1.9,3c0.7,0.4,1.8,0.8,3.2,1.2l3.2,0.8c3.5,0.8,5.9,1.6,7.1,2.4
			c1.9,1.2,2.8,3.2,2.8,5.8c0,2.5-1,4.7-2.9,6.6c-2,1.8-4.9,2.8-8.9,2.8c-4.3,0-7.3-1-9.1-2.9s-2.7-4.3-2.9-7.1h4.6L804.2,180.5
			L804.2,180.5z"/>
		<path class="st12" d="M828.6,195.1c1.2-0.2,2.1-1.1,2.6-2.6c0.3-0.8,0.4-1.6,0.4-2.3c0-0.1,0-0.2,0-0.3s0-0.2-0.1-0.3h-2.9v-5.8
			h5.7v5.4c0,2.1-0.4,4-1.3,5.6c-0.9,1.6-2.3,2.6-4.4,3V195.1z"/>
		<path class="st12" d="M856.4,150.4h5.3v34.4h19.6v4.7h-24.9L856.4,150.4L856.4,150.4z"/>
		<path class="st12" d="M885.7,150.4h5.3v34.4h19.6v4.7h-24.9L885.7,150.4L885.7,150.4z"/>
		<path class="st12" d="M942.6,153.2c2.7,2.6,4.2,5.6,4.5,8.9h-5.2c-0.6-2.5-1.7-4.5-3.4-6s-4.1-2.2-7.2-2.2c-3.8,0-6.8,1.4-9.2,4.1
			c-2.3,2.7-3.5,6.9-3.5,12.5c0,4.6,1.1,8.3,3.2,11.2c2.1,2.9,5.2,4.3,9.4,4.3c3.8,0,6.8-1.5,8.8-4.5c1.1-1.6,1.9-3.7,2.4-6.2h5.2
			c-0.5,4.1-2,7.6-4.5,10.4c-3.1,3.4-7.2,5-12.4,5c-4.5,0-8.3-1.4-11.3-4.1c-4-3.6-6-9.3-6-16.9c0-5.8,1.5-10.5,4.5-14.2
			c3.3-4,7.8-6,13.5-6C936.1,149.3,939.9,150.6,942.6,153.2z"/>
	</g>
</g>
</svg>
