<?xml version="1.0" encoding="utf-8"?>
<!-- Generator: Adobe Illustrator 19.2.1, SVG Export Plug-In . SVG Version: 6.00 Build 0)  -->
<svg version="1.1" id="Layer_1" xmlns="http://www.w3.org/2000/svg" xmlns:xlink="http://www.w3.org/1999/xlink" x="0px" y="0px"
	 viewBox="0 0 144 144" style="enable-background:new 0 0 144 144;" xml:space="preserve">
<style type="text/css">
	.st0{fill:#57B8E8;}
	.st1{fill:#517FC0;}
	.st2{fill:#EA5B46;}
	.st3{fill:#F2B457;}
</style>
<g>
	<path class="st0" d="M105.6,0H86.4C65.2,0,48,17.2,48,38.4h57.6c15.6,0,29.6,7.6,38.4,19.3V38.4C144,17.2,126.8,0,105.6,0z"/>
	<path class="st1" d="M105.6,48v57.6c0,15.8-7.6,29.6-19.3,38.4h19.3c21.2,0,38.4-17.2,38.4-38.4V86.4C144,65.2,126.8,48,105.6,48z"
		/>
	<path class="st2" d="M38.4,105.6C22.8,105.6,8.8,98,0,86.4v19.3C0,126.8,17.2,144,38.4,144h19.3c21.2,0,38.4-17.2,38.4-38.4H38.4z"
		/>
	<path class="st3" d="M38.4,0C17.2,0,0,17.2,0,38.4v19.3C0,78.8,17.2,96,38.4,96V38.4C38.4,22.6,46,8.8,57.6,0H38.4z"/>
</g>
</svg>
