<?xml version="1.0" encoding="utf-8"?>
<!-- Generator: Adobe Illustrator 19.2.1, SVG Export Plug-In . SVG Version: 6.00 Build 0)  -->
<svg version="1.1" id="Layer_1" xmlns="http://www.w3.org/2000/svg" xmlns:xlink="http://www.w3.org/1999/xlink" x="0px" y="0px"
	 viewBox="0 0 932.6 144" style="enable-background:new 0 0 932.6 144;" xml:space="preserve">
<style type="text/css">
	.st0{fill:#163438;}
	.st1{fill:#57B8E8;}
	.st2{fill:#517FC0;}
	.st3{fill:#EA5B46;}
	.st4{fill:#F2B457;}
</style>
<path class="st0" d="M233.6,83.9c-1.6-2.7-2.5-3.9-2.5-3.9v-0.2c6.5-3.3,9.8-10.9,9.8-17.8c0-9.5-4.7-16.1-12-19
	c-2.8-1.1-6-1.6-12.7-1.6h-22.7v65.2h16v-22h7.5l11.6,22h17.8L233.6,83.9z M216.3,71h-6.9V55.2h5.4c8,0,9.9,2.9,9.9,7.8
	C224.6,68.2,221.4,71,216.3,71z"/>
<polygon class="st0" points="268.1,41.5 308.9,41.5 308.9,55.2 284,55.2 284,67 303.9,67 303.9,80.7 284,80.7 284,93 310.2,93 
	310.2,106.7 268.1,106.7 "/>
<path class="st0" d="M341.8,86.4c0,0,7.4,6.8,15.6,6.8c3.3,0,6.8-1.3,6.8-5.2c0-7.8-29.4-7.5-29.4-27.5c0-12,10.1-20,23.1-20
	c14,0,21,7.4,21,7.4l-6.8,13c0,0-6.6-5.7-14.4-5.7c-3.3,0-6.9,1.5-6.9,5.1c0,8.2,29.4,6.8,29.4,27.4c0,10.9-8.3,20.3-23,20.3
	c-15.3,0-23.8-9.3-23.8-9.3L341.8,86.4z"/>
<path class="st0" d="M433.2,40.4c16.1,0,24.4,9.2,24.4,9.2l-7.4,12c0,0-7.3-6.7-16.3-6.7c-12.5,0-18.4,9.2-18.4,18.6
	c0,9.7,6.4,19.6,18.4,19.6c9.9,0,17.3-8,17.3-8l8.2,11.7c0,0-9.2,10.9-26.3,10.9c-20.4,0-34.2-14.5-34.2-33.8
	C399,55,413.6,40.4,433.2,40.4z"/>
<path class="st0" d="M480.4,40.9h16v41.2c0,6.8,4.5,10.5,11.3,10.5c6.8,0,11.3-3.6,11.3-10.5V40.9h16v41.2
	c0,14.7-10.8,25.1-27.2,25.1c-16.6,0-27.4-10.4-27.4-25.1V40.9z"/>
<polygon class="st0" points="562.6,41.5 603.5,41.5 603.5,55.2 578.6,55.2 578.6,67 598.5,67 598.5,80.7 578.6,80.7 578.6,93 
	604.8,93 604.8,106.7 562.6,106.7 "/>
<polygon class="st0" points="676.2,55.2 656.4,55.2 656.4,41.5 711.9,41.5 711.9,55.2 692.1,55.2 692.1,106.7 676.2,106.7 "/>
<polygon class="st0" points="734.4,41.5 775.2,41.5 775.2,55.2 750.3,55.2 750.3,67 770.2,67 770.2,80.7 750.3,80.7 750.3,93 
	776.5,93 776.5,106.7 734.4,106.7 "/>
<path class="st0" d="M829.9,40.4c16.1,0,24.4,9.2,24.4,9.2l-7.4,12c0,0-7.3-6.7-16.3-6.7c-12.5,0-18.4,9.2-18.4,18.6
	c0,9.7,6.4,19.6,18.4,19.6c9.9,0,17.3-8,17.3-8l8.2,11.7c0,0-9.2,10.9-26.3,10.9c-20.4,0-34.2-14.5-34.2-33.8
	C795.7,55,810.3,40.4,829.9,40.4z"/>
<polygon class="st0" points="876.9,41.5 892.9,41.5 892.9,67.6 916.6,67.6 916.6,41.5 932.6,41.5 932.6,106.7 916.6,106.7 
	916.6,81.2 892.9,81.2 892.9,106.7 876.9,106.7 "/>
<g>
	<path class="st1" d="M105.6,0H86.4C65.2,0,48,17.2,48,38.4h57.6c15.6,0,29.6,7.6,38.4,19.3V38.4C144,17.2,126.8,0,105.6,0z"/>
	<path class="st2" d="M105.6,48v57.6c0,15.8-7.6,29.6-19.3,38.4h19.3c21.2,0,38.4-17.2,38.4-38.4V86.4C144,65.2,126.8,48,105.6,48z"
		/>
	<path class="st3" d="M38.4,105.6C22.8,105.6,8.8,98,0,86.4v19.3C0,126.8,17.2,144,38.4,144h19.3c21.2,0,38.4-17.2,38.4-38.4H38.4z"
		/>
	<path class="st4" d="M38.4,0C17.2,0,0,17.2,0,38.4v19.3C0,78.8,17.2,96,38.4,96V38.4C38.4,22.6,46,8.8,57.6,0H38.4z"/>
</g>
</svg>
