<?xml version="1.0" encoding="utf-8"?>
<!-- Generator: Adobe Illustrator 19.2.1, SVG Export Plug-In . SVG Version: 6.00 Build 0)  -->
<svg version="1.1" id="Layer_1" xmlns="http://www.w3.org/2000/svg" xmlns:xlink="http://www.w3.org/1999/xlink" x="0px" y="0px"
	 viewBox="0 0 24 24" style="enable-background:new 0 0 24 24;" xml:space="preserve">
<g>
	<path d="M14.2,9.9L12,12.2L9.8,9.9c-0.6-0.6-1.5-0.6-2.1,0C7,10.5,7,11.4,7.6,12l3.3,3.3c0.3,0.3,0.7,0.4,1.1,0.4s0.8-0.1,1.1-0.4
		l3.3-3.3c0.6-0.6,0.6-1.5,0-2.1S14.8,9.3,14.2,9.9z"/>
	<path d="M12,0C5.4,0,0,5.4,0,12s5.4,12,12,12s12-5.4,12-12S18.6,0,12,0z M12,21c-5,0-9-4-9-9s4-9,9-9s9,4,9,9S17,21,12,21z"/>
</g>
</svg>
