<?xml version="1.0" encoding="utf-8"?>
<!-- Generator: Adobe Illustrator 19.2.1, SVG Export Plug-In . SVG Version: 6.00 Build 0)  -->
<svg version="1.1" id="Layer_1" xmlns="http://www.w3.org/2000/svg" xmlns:xlink="http://www.w3.org/1999/xlink" x="0px" y="0px"
	 viewBox="0 0 24 24" style="enable-background:new 0 0 24 24;" xml:space="preserve">
<g>
	<path d="M13,12.7c0-0.3-0.4-1.1-0.9-1.9c-0.5,0.8-0.9,1.6-0.9,1.9c0,0.5,0.4,0.9,0.9,0.9S13,13.2,13,12.7z"/>
	<path d="M9.8,11.5h0.7c0.4-0.8,0.9-1.6,1.2-1.9c0.1-0.1,0.2-0.2,0.4-0.2s0.3,0.1,0.4,0.2c0.2,0.3,0.8,1.1,1.2,1.9h0.7v-4H9.8V11.5z
		"/>
	<path d="M14,12.7c0,1.1-0.9,1.9-1.9,1.9c-1.1,0-1.9-0.9-1.9-1.9c0-0.1,0-0.1,0-0.2H9.8v4h4.6v-4H14C14,12.6,14,12.6,14,12.7z"/>
	<path d="M23.5,10.3l-4.3-7.4c-0.6-1-1.7-1.7-2.9-1.7H7.8c-1.2,0-2.3,0.6-2.9,1.7l-4.3,7.4c-0.6,1-0.6,2.3,0,3.4l4.3,7.4
		c0.6,1,1.7,1.7,2.9,1.7h8.6c1.2,0,2.3-0.6,2.9-1.7l4.3-7.4C24.2,12.6,24.2,11.4,23.5,10.3z M7.9,7c0-0.3,0.2-0.5,0.5-0.5h0.9h5.6
		h0.9c0.3,0,0.5,0.2,0.5,0.5S16,7.5,15.7,7.5h-0.4v4h0.4c0.3,0,0.5,0.2,0.5,0.5s-0.2,0.5-0.5,0.5h-0.4v4h0.4c0.3,0,0.5,0.2,0.5,0.5
		s-0.2,0.5-0.5,0.5h-0.9H9.3H8.4c-0.3,0-0.5-0.2-0.5-0.5s0.2-0.5,0.5-0.5h0.4v-4H8.4c-0.3,0-0.5-0.2-0.5-0.5s0.2-0.5,0.5-0.5h0.4v-4
		"/>
</g>
</svg>
