<?xml version="1.0" encoding="utf-8"?>
<!-- Generator: Adobe Illustrator 19.2.1, SVG Export Plug-In . SVG Version: 6.00 Build 0)  -->
<svg version="1.1" id="Layer_1" xmlns="http://www.w3.org/2000/svg" xmlns:xlink="http://www.w3.org/1999/xlink" x="0px" y="0px"
	 viewBox="0 0 24 24" style="enable-background:new 0 0 24 24;" xml:space="preserve">
<path d="M23.5,10.3l-4.3-7.4c-0.6-1-1.7-1.7-2.9-1.7H7.8c-1.2,0-2.3,0.6-2.9,1.7l-4.3,7.4c-0.6,1-0.6,2.3,0,3.4l4.3,7.4
	c0.6,1,1.7,1.7,2.9,1.7h8.6c1.2,0,2.3-0.6,2.9-1.7l4.3-7.4C24.2,12.6,24.2,11.4,23.5,10.3z M16.9,18l-7.4-7.4l-0.1,0.1L9,10.2
	c-0.5-0.5-1.3,0.2-1.2,0.7l-0.6,0.6L6,10.3l0.6-0.6c0.9-0.2,0.9-0.9,0.9-0.9l1.3-1.3c0.6-0.6,2.2-0.8,3.8,0
	c-1.2-0.2-1.9-0.1-2.5,0.6c-0.2,0.2-0.2,0.5,0,0.7l0.5,0.5l-0.1,0.1l7.4,7.4L16.9,18z"/>
</svg>
