<?xml version="1.0" encoding="utf-8"?>
<!-- Generator: Adobe Illustrator 19.2.1, SVG Export Plug-In . SVG Version: 6.00 Build 0)  -->
<svg version="1.1" id="Layer_1" xmlns="http://www.w3.org/2000/svg" xmlns:xlink="http://www.w3.org/1999/xlink" x="0px" y="0px"
	 viewBox="0 0 24 24" style="enable-background:new 0 0 24 24;" xml:space="preserve">
<g>
	<path d="M11.4,11.2c0-1.9,1.5-3.4,3.4-3.4c0.1,0,0.3,0,0.4,0c-0.4-0.2-0.8-0.3-1.3-0.3c-0.1,0-0.1,0-0.2,0c-0.9,0-1.8,0.3-2.4,0.9
		C10.5,9.1,10.1,10,10,11c-0.1,2,1.5,3.7,3.5,3.8c0.6,0,1.1-0.1,1.6-0.3c-0.1,0-0.2,0-0.4,0C12.9,14.6,11.4,13,11.4,11.2z"/>
	<path d="M14.8,8.6c-1.4,0-2.6,1.2-2.6,2.6s1.2,2.6,2.6,2.6c0.4,0,0.8-0.1,1.2-0.3c0,0-0.1,0-0.1,0c0,0-0.1,0-0.1,0
		c-1.3-0.1-2.2-1.1-2.2-2.4l0.8,0c0,0.8,0.6,1.5,1.4,1.6c0.8,0,1.5-0.5,1.6-1.3c0,0,0-0.1,0-0.1c0-0.1,0-0.2,0-0.4
		C17.2,9.6,16.1,8.6,14.8,8.6z"/>
	<path d="M23.5,10.3l-4.3-7.4c-0.6-1-1.7-1.7-2.9-1.7H7.8c-1.2,0-2.3,0.6-2.9,1.7l-4.3,7.4c-0.6,1-0.6,2.3,0,3.4l4.3,7.4
		c0.6,1,1.7,1.7,2.9,1.7h8.6c1.2,0,2.3-0.6,2.9-1.7l4.3-7.4C24.2,12.6,24.2,11.4,23.5,10.3z M18.1,11.3
		C18.1,11.3,18.1,11.3,18.1,11.3c0,0,0,0.1,0,0.1v0c0,0,0,0,0,0.1c-0.2,3.2-2.8,5.8-6.1,5.8c-3.4,0-6.1-2.7-6.1-6.1h0.8
		c0,2.9,2.4,5.3,5.3,5.3c1.3,0,2.4-0.4,3.3-1.2c-0.5,0.2-1.1,0.3-1.7,0.3c-0.1,0-0.2,0-0.2,0C11,15.5,9.1,13.4,9.2,11
		c0.1-1.2,0.6-2.3,1.5-3.1c0.9-0.8,2-1.2,3.2-1.1c2.4,0.1,4.2,2.1,4.2,4.4c0,0,0,0,0,0.1C18.1,11.2,18.1,11.3,18.1,11.3
		C18.1,11.3,18.1,11.3,18.1,11.3L18.1,11.3z"/>
</g>
</svg>
