<?xml version="1.0" encoding="utf-8"?>
<!-- Generator: Adobe Illustrator 19.2.1, SVG Export Plug-In . SVG Version: 6.00 Build 0)  -->
<svg version="1.1" id="Layer_1" xmlns="http://www.w3.org/2000/svg" xmlns:xlink="http://www.w3.org/1999/xlink" x="0px" y="0px"
	 viewBox="0 0 24 24" style="enable-background:new 0 0 24 24;" xml:space="preserve">
<g>
	<path d="M9.7,12h1.1c-0.1,0.3-0.2,0.6-0.2,0.8c0,0.1,0,0.1,0,0.2H9.7v4.1h4.6V13h-0.9c0-0.1,0-0.1,0-0.2c0-0.2-0.1-0.5-0.2-0.8h1.1
		V7.6H9.7V12z M11.2,12.5C11.2,12.4,11.2,12.4,11.2,12.5c0.1-0.2,0.1-0.3,0.2-0.5c0,0,0,0,0,0c0.3-0.5,0.6-1.1,0.6-1.1
		s0.4,0.6,0.6,1.1c0,0,0,0,0,0c0.1,0.1,0.1,0.3,0.2,0.4c0,0,0,0.1,0,0.1c0,0.1,0.1,0.2,0.1,0.3c0,0.5-0.4,0.9-0.9,0.9
		c-0.5,0-0.9-0.4-0.9-0.9C11.1,12.7,11.1,12.6,11.2,12.5z"/>
	<path d="M23.4,10.8l-4.3-7.4c-0.6-1-1.7-1.7-2.9-1.7H7.7c-1.2,0-2.3,0.6-2.9,1.7l-4.3,7.4c-0.6,1-0.6,2.3,0,3.4l4.3,7.4
		c0.6,1,1.7,1.7,2.9,1.7h8.6c1.2,0,2.3-0.6,2.9-1.7l4.3-7.4C24.1,13.1,24.1,11.9,23.4,10.8z M16.3,12c0.3,0,0.5,0.2,0.5,0.5
		S16.5,13,16.3,13h-1v4.1h1c0.3,0,0.5,0.2,0.5,0.5s-0.2,0.5-0.5,0.5H7.8c-0.3,0-0.5-0.2-0.5-0.5s0.2-0.5,0.5-0.5h0.9V13H7.8
		c-0.3,0-0.5-0.2-0.5-0.5S7.5,12,7.8,12h0.9V7.6H7.8c-0.3,0-0.5-0.2-0.5-0.5s0.2-0.5,0.5-0.5h8.5c0.3,0,0.5,0.2,0.5,0.5
		s-0.2,0.5-0.5,0.5h-1V12H16.3z"/>
</g>
</svg>
