<?xml version="1.0" encoding="utf-8"?>
<!-- Generator: Adobe Illustrator 19.2.1, SVG Export Plug-In . SVG Version: 6.00 Build 0)  -->
<svg version="1.1" id="Layer_1" xmlns="http://www.w3.org/2000/svg" xmlns:xlink="http://www.w3.org/1999/xlink" x="0px" y="0px"
	 viewBox="0 0 24 24" style="enable-background:new 0 0 24 24;" xml:space="preserve">
<g>
	<circle cx="12.1" cy="12" r="1.9"/>
	<path d="M23.5,10.3l-4.3-7.4c-0.6-1-1.7-1.7-2.9-1.7H7.8c-1.2,0-2.3,0.6-2.9,1.7l-4.3,7.4c-0.6,1-0.6,2.3,0,3.4l4.3,7.4
		c0.6,1,1.7,1.7,2.9,1.7h8.6c1.2,0,2.3-0.6,2.9-1.7l4.3-7.4C24.2,12.6,24.2,11.4,23.5,10.3z M17.6,13l-1.3,0.1
		c-0.1,0.4-0.2,0.7-0.4,1.1l0.9,1c-0.4,0.6-0.9,1-1.4,1.4l-1-0.9c-0.3,0.2-0.7,0.3-1.1,0.4l-0.1,1.3c-0.3,0.1-0.7,0.1-1,0.1
		c-0.3,0-0.7,0-1-0.1L11,16.2c-0.4-0.1-0.7-0.2-1.1-0.4l-1,0.9c-0.6-0.4-1-0.9-1.4-1.4l0.9-1c-0.2-0.3-0.3-0.7-0.4-1.1L6.6,13
		c-0.1-0.3-0.1-0.7-0.1-1c0-0.3,0-0.7,0.1-1l1.3-0.1c0.1-0.4,0.2-0.7,0.4-1.1l-0.9-1c0.4-0.6,0.9-1,1.4-1.4l1,0.9
		c0.3-0.2,0.7-0.3,1.1-0.4l0.1-1.3c0.3-0.1,0.7-0.1,1-0.1c0.3,0,0.7,0,1,0.1l0.1,1.3c0.4,0.1,0.7,0.2,1.1,0.4l1-0.9
		c0.6,0.4,1,0.9,1.4,1.4l-0.9,1c0.2,0.3,0.3,0.7,0.4,1.1l1.3,0.1c0.1,0.3,0.1,0.7,0.1,1C17.7,12.3,17.7,12.7,17.6,13z"/>
</g>
</svg>
