<?xml version="1.0" encoding="utf-8"?>
<!-- Generator: Adobe Illustrator 19.2.1, SVG Export Plug-In . SVG Version: 6.00 Build 0)  -->
<svg version="1.1" id="Layer_1" xmlns="http://www.w3.org/2000/svg" xmlns:xlink="http://www.w3.org/1999/xlink" x="0px" y="0px"
	 viewBox="0 0 24 24" style="enable-background:new 0 0 24 24;" xml:space="preserve">
<path id="LinkedIn_1_" d="M24,14.6v8.9h-5.1v-8.3c0-2.1-0.7-3.5-2.6-3.5c-1.4,0-2.3,1-2.6,1.9c-0.1,0.3-0.2,0.8-0.2,1.3v8.6H8.3
	c0,0,0.1-14,0-15.5h5.1v2.2c0,0,0,0,0,0.1h0v-0.1c0.7-1.1,1.9-2.6,4.6-2.6C21.5,7.7,24,9.9,24,14.6z M2.9,0.6C1.1,0.6,0,1.7,0,3.3
	c0,1.5,1.1,2.7,2.8,2.7h0c1.8,0,2.9-1.2,2.9-2.7C5.8,1.7,4.7,0.6,2.9,0.6z M0.3,23.5h5.1V8H0.3V23.5z"/>
</svg>
