<?xml version="1.0" encoding="utf-8"?>
<!-- Generator: Adobe Illustrator 19.2.1, SVG Export Plug-In . SVG Version: 6.00 Build 0)  -->
<svg version="1.1" id="Layer_1" xmlns="http://www.w3.org/2000/svg" xmlns:xlink="http://www.w3.org/1999/xlink" x="0px" y="0px"
	 viewBox="0 0 24 24" style="enable-background:new 0 0 24 24;" xml:space="preserve">
<g>
	<path d="M9.8,14.1l2.2-2.2l2.2,2.2c0.6,0.6,1.5,0.6,2.1,0c0.6-0.6,0.6-1.5,0-2.1l-3.3-3.3c-0.3-0.3-0.7-0.4-1.1-0.4
		s-0.8,0.1-1.1,0.4L7.6,12c-0.6,0.6-0.6,1.5,0,2.1S9.2,14.7,9.8,14.1z"/>
	<path d="M12,24c6.6,0,12-5.4,12-12S18.6,0,12,0S0,5.4,0,12C0,18.6,5.4,24,12,24z M12,3c5,0,9,4,9,9s-4,9-9,9s-9-4-9-9S7,3,12,3z"/>
</g>
</svg>
