<?xml version="1.0" encoding="utf-8"?>
<!-- Generator: Adobe Illustrator 19.2.1, SVG Export Plug-In . SVG Version: 6.00 Build 0)  -->
<svg version="1.1" id="Layer_1" xmlns="http://www.w3.org/2000/svg" xmlns:xlink="http://www.w3.org/1999/xlink" x="0px" y="0px"
	 viewBox="0 0 24 24" style="enable-background:new 0 0 24 24;" xml:space="preserve">
<path d="M13.1,23.6l8.3-8.3c0.6-0.6,0.6-1.5,0-2.1c-0.6-0.6-1.5-0.6-2.1,0L12,20.4l-7.3-7.3c-0.6-0.6-1.5-0.6-2.1,0
	c-0.3,0.3-0.4,0.7-0.4,1.1s0.1,0.8,0.4,1.1l8.3,8.3C11.5,24.1,12.5,24.1,13.1,23.6z"/>
<path d="M10.5,13.3V1.5C10.5,0.7,11.2,0,12,0c0.8,0,1.5,0.7,1.5,1.5v11.8c0,0.8-0.7,1.5-1.5,1.5S10.5,14.1,10.5,13.3z"/>
</svg>
