<?xml version="1.0" encoding="utf-8"?>
<!-- Generator: Adobe Illustrator 19.2.1, SVG Export Plug-In . SVG Version: 6.00 Build 0)  -->
<svg version="1.1" id="Layer_1" xmlns="http://www.w3.org/2000/svg" xmlns:xlink="http://www.w3.org/1999/xlink" x="0px" y="0px"
	 viewBox="0 0 24 24" style="enable-background:new 0 0 24 24;" xml:space="preserve">
<g>
	<path d="M14.1,14.2L11.8,12l2.2-2.2c0.6-0.6,0.6-1.5,0-2.1C13.5,7,12.6,7,12,7.6l-3.3,3.3c-0.3,0.3-0.4,0.7-0.4,1.1
		s0.1,0.8,0.4,1.1l3.3,3.3c0.6,0.6,1.5,0.6,2.1,0S14.7,14.8,14.1,14.2z"/>
	<path d="M24,12c0-6.6-5.4-12-12-12C5.4,0,0,5.4,0,12s5.4,12,12,12S24,18.6,24,12z M3,12c0-5,4-9,9-9s9,4,9,9s-4,9-9,9S3,17,3,12z"
		/>
</g>
</svg>
