<?xml version="1.0" encoding="utf-8"?>
<!-- Generator: Adobe Illustrator 19.2.1, SVG Export Plug-In . SVG Version: 6.00 Build 0)  -->
<svg version="1.1" id="Layer_1" xmlns="http://www.w3.org/2000/svg" xmlns:xlink="http://www.w3.org/1999/xlink" x="0px" y="0px"
	 viewBox="0 0 24 24" style="enable-background:new 0 0 24 24;" xml:space="preserve">
<g>
	<path d="M9.9,9.8l2.2,2.2l-2.2,2.2c-0.6,0.6-0.6,1.5,0,2.1c0.6,0.6,1.5,0.6,2.1,0l3.3-3.3c0.3-0.3,0.4-0.7,0.4-1.1
		s-0.1-0.8-0.4-1.1L12,7.6C11.4,7,10.5,7,9.9,7.6S9.3,9.2,9.9,9.8z"/>
	<path d="M0,12c0,6.6,5.4,12,12,12s12-5.4,12-12S18.6,0,12,0S0,5.4,0,12z M21,12c0,5-4,9-9,9s-9-4-9-9s4-9,9-9S21,7,21,12z"/>
</g>
</svg>
