<?xml version="1.0" encoding="utf-8"?>
<!-- Generator: Adobe Illustrator 19.2.1, SVG Export Plug-In . SVG Version: 6.00 Build 0)  -->
<svg version="1.1" id="Layer_1" xmlns="http://www.w3.org/2000/svg" xmlns:xlink="http://www.w3.org/1999/xlink" x="0px" y="0px"
	 viewBox="0 0 24 24" style="enable-background:new 0 0 24 24;" xml:space="preserve">
<path d="M13.1,0.4l8.3,8.3c0.6,0.6,0.6,1.5,0,2.1c-0.6,0.6-1.5,0.6-2.1,0L12,3.6l-7.3,7.3c-0.6,0.6-1.5,0.6-2.1,0
	c-0.3-0.3-0.4-0.7-0.4-1.1s0.1-0.8,0.4-1.1l8.3-8.3C11.5-0.1,12.5-0.1,13.1,0.4z"/>
<path d="M10.5,10.7v11.8c0,0.8,0.7,1.5,1.5,1.5s1.5-0.7,1.5-1.5V10.7c0-0.8-0.7-1.5-1.5-1.5S10.5,9.9,10.5,10.7z"/>
</svg>
