<?xml version="1.0" encoding="utf-8"?>
<!-- Generator: Adobe Illustrator 19.2.1, SVG Export Plug-In . SVG Version: 6.00 Build 0)  -->
<svg version="1.1" id="Layer_1" xmlns="http://www.w3.org/2000/svg" xmlns:xlink="http://www.w3.org/1999/xlink" x="0px" y="0px"
	 viewBox="0 0 24 24" style="enable-background:new 0 0 24 24;" xml:space="preserve">
<path d="M23.6,10.9l-8.3-8.3c-0.6-0.6-1.5-0.6-2.1,0c-0.6,0.6-0.6,1.5,0,2.1l7.3,7.3l-7.3,7.3c-0.6,0.6-0.6,1.5,0,2.1
	c0.3,0.3,0.7,0.4,1.1,0.4s0.8-0.1,1.1-0.4l8.3-8.3C24.1,12.5,24.1,11.5,23.6,10.9z"/>
<path d="M13.3,13.5H1.5C0.7,13.5,0,12.8,0,12s0.7-1.5,1.5-1.5h11.8c0.8,0,1.5,0.7,1.5,1.5S14.1,13.5,13.3,13.5z"/>
</svg>
