<?xml version="1.0" encoding="utf-8"?>
<!-- Generator: Adobe Illustrator 19.2.1, SVG Export Plug-In . SVG Version: 6.00 Build 0)  -->
<svg version="1.1" id="Layer_1" xmlns="http://www.w3.org/2000/svg" xmlns:xlink="http://www.w3.org/1999/xlink" x="0px" y="0px"
	 viewBox="0 0 24 24" style="enable-background:new 0 0 24 24;" xml:space="preserve">
<g>
	<polygon points="13.1,7 10.9,7 10.9,10.9 7,10.9 7,13.1 10.9,13.1 10.9,17 13.1,17 13.1,13.1 17,13.1 17,10.9 13.1,10.9 	"/>
	<path d="M23.5,10.3l-4.3-7.4c-0.6-1-1.7-1.7-2.9-1.7H7.7c-1.2,0-2.3,0.6-2.9,1.7l-4.3,7.4c-0.6,1-0.6,2.3,0,3.4l4.3,7.4
		c0.6,1,1.7,1.7,2.9,1.7h8.6c1.2,0,2.3-0.6,2.9-1.7l4.3-7.4C24.1,12.6,24.1,11.4,23.5,10.3z M18,14.1h-3.9V18H9.9v-3.9H6V9.9h3.9V6
		h4.3v3.9H18V14.1z"/>
</g>
</svg>
