<?xml version="1.0" encoding="utf-8"?>
<!-- Generator: Adobe Illustrator 19.2.1, SVG Export Plug-In . SVG Version: 6.00 Build 0)  -->
<svg version="1.1" id="Layer_1" xmlns="http://www.w3.org/2000/svg" xmlns:xlink="http://www.w3.org/1999/xlink" x="0px" y="0px"
	 viewBox="0 0 24 24" style="enable-background:new 0 0 24 24;" xml:space="preserve">
<g>
	<path d="M14.5,13.5c-0.2-0.2-0.4-0.2-0.6,0l-0.3,0.3c-0.4,0.4-1.2,0.4-1.6,0L10.2,12c-0.2-0.2-0.3-0.5-0.3-0.8
		c0-0.3,0.1-0.6,0.3-0.8l0.3-0.3c0.1-0.1,0.1-0.2,0.1-0.3c0-0.1,0-0.2-0.1-0.3L8.8,7.9C8.8,7.9,8.7,7.8,8.6,7.8
		c-0.1,0-0.2,0-0.2,0.1c-0.9,0.9-0.9,2.4,0,3.3l4.4,4.4c0.9,0.9,2.4,0.9,3.3,0c0.1-0.1,0.1-0.3,0-0.4L14.5,13.5z"/>
	<path d="M23.5,10.3l-4.3-7.4c-0.6-1-1.7-1.7-2.9-1.7H7.7c-1.2,0-2.3,0.6-2.9,1.7l-4.3,7.4c-0.6,1-0.6,2.3,0,3.4l4.3,7.4
		c0.6,1,1.7,1.7,2.9,1.7h8.6c1.2,0,2.3-0.6,2.9-1.7l4.3-7.4C24.1,12.6,24.1,11.4,23.5,10.3z M16.7,16.2c-0.6,0.6-1.4,0.9-2.2,0.9
		s-1.6-0.3-2.2-0.9l-4.4-4.4c-1.2-1.2-1.2-3.2,0-4.4c0.4-0.4,1.1-0.4,1.6,0L11,9c0.5,0.5,0.5,1.2,0,1.7l-0.3,0.3
		c-0.1,0.1-0.1,0.1-0.1,0.2c0,0.1,0,0.2,0.1,0.2l1.8,1.8c0.1,0.1,0.3,0.1,0.5,0l0.3-0.3c0.5-0.5,1.2-0.5,1.7,0l1.6,1.6
		C17.1,15,17.1,15.7,16.7,16.2z"/>
</g>
</svg>
