<?xml version="1.0" encoding="utf-8"?>
<!-- Generator: Adobe Illustrator 19.2.1, SVG Export Plug-In . SVG Version: 6.00 Build 0)  -->
<svg version="1.1" id="Layer_1" xmlns="http://www.w3.org/2000/svg" xmlns:xlink="http://www.w3.org/1999/xlink" x="0px" y="0px"
	 viewBox="0 0 24 24" style="enable-background:new 0 0 24 24;" xml:space="preserve">
<g>
	<path d="M12.7,12.3c-0.1-0.1-0.1-0.3-0.1-0.4l0.9-3.7l-3.3,3.3h0.7c0.2,0,0.3,0.1,0.4,0.2c0.1,0.1,0.1,0.3,0.1,0.4l-0.9,3.7
		l3.3-3.3h-0.7C12.9,12.5,12.8,12.4,12.7,12.3z"/>
	<path d="M23.5,10.3l-4.3-7.4c-0.6-1-1.7-1.7-2.9-1.7H7.8c-1.2,0-2.3,0.6-2.9,1.7l-4.3,7.4c-0.6,1-0.6,2.3,0,3.4l4.3,7.4
		c0.6,1,1.7,1.7,2.9,1.7h8.6c1.2,0,2.3-0.6,2.9-1.7l4.3-7.4C24.2,12.6,24.2,11.4,23.5,10.3z M15.3,12.4l-5.4,5.5
		C9.8,17.9,9.7,18,9.6,18c-0.1,0-0.2,0-0.2-0.1c-0.2-0.1-0.3-0.3-0.2-0.6l1.2-4.9H9c-0.2,0-0.4-0.1-0.5-0.3c-0.1-0.2,0-0.4,0.1-0.5
		l5.4-5.5C14.2,6,14.5,6,14.7,6.1c0.2,0.1,0.3,0.3,0.2,0.6l-1.2,4.9H15c0.2,0,0.4,0.1,0.5,0.3C15.5,12,15.5,12.2,15.3,12.4z"/>
</g>
</svg>
