<?xml version="1.0" encoding="utf-8"?>
<!-- Generator: Adobe Illustrator 19.2.1, SVG Export Plug-In . SVG Version: 6.00 Build 0)  -->
<svg version="1.1" id="Layer_1" xmlns="http://www.w3.org/2000/svg" xmlns:xlink="http://www.w3.org/1999/xlink" x="0px" y="0px"
	 viewBox="0 0 24 24" style="enable-background:new 0 0 24 24;" xml:space="preserve">
<g>
	<path d="M8.9,15.9c0.7,0.6,1.6,1,2.6,1.1v-3.1c-0.2,0-0.3-0.1-0.5-0.2L8.9,15.9z"/>
	<path d="M11.1,10.3c0.1-0.1,0.3-0.1,0.5-0.2V7c-1,0.1-1.9,0.5-2.6,1.1L11.1,10.3z"/>
	<path d="M10.3,11L8.1,8.8c-0.6,0.7-1,1.6-1.1,2.6h3.1C10.2,11.3,10.2,11.2,10.3,11z"/>
	<path d="M10.1,12.5H7.1c0.1,1,0.5,1.9,1.1,2.6l2.2-2.2C10.2,12.8,10.2,12.7,10.1,12.5z"/>
	<path d="M15.2,8.1c-0.7-0.6-1.6-1-2.6-1.1v3.1c0.2,0,0.3,0.1,0.5,0.2L15.2,8.1z"/>
	<path d="M13.8,11c0.1,0.1,0.1,0.3,0.2,0.5H17c-0.1-1-0.5-1.9-1.1-2.6L13.8,11z"/>
	<path d="M23.5,10.3l-4.3-7.4c-0.6-1-1.7-1.7-2.9-1.7H7.8c-1.2,0-2.3,0.6-2.9,1.7l-4.3,7.4c-0.6,1-0.6,2.3,0,3.4l4.3,7.4
		c0.6,1,1.7,1.7,2.9,1.7h8.6c1.2,0,2.3-0.6,2.9-1.7l4.3-7.4C24.2,12.6,24.2,11.4,23.5,10.3z M19.6,12c0,0.3-0.2,0.5-0.5,0.5h-1
		c-0.1,1.3-0.6,2.4-1.4,3.4l0.7,0.7c0.2,0.2,0.2,0.5,0,0.7s-0.5,0.2-0.7,0l-0.7-0.7c-0.9,0.8-2.1,1.3-3.4,1.4v1
		c0,0.3-0.2,0.5-0.5,0.5h0c-0.3,0-0.5-0.2-0.5-0.5v-1c-1.3-0.1-2.4-0.6-3.4-1.4l-0.7,0.7c-0.2,0.2-0.5,0.2-0.7,0s-0.2-0.5,0-0.7
		l0.7-0.7C6.6,15,6.1,13.8,6,12.5H5c-0.3,0-0.5-0.2-0.5-0.5v0c0-0.3,0.2-0.5,0.5-0.5h1C6.1,10.2,6.6,9,7.4,8.1L6.7,7.4
		c-0.2-0.2-0.2-0.5,0-0.7c0.2-0.2,0.5-0.2,0.7,0l0.7,0.7c0.9-0.8,2.1-1.3,3.4-1.4v-1c0-0.3,0.2-0.5,0.5-0.5h0c0.3,0,0.5,0.2,0.5,0.5
		v1c1.3,0.1,2.4,0.6,3.4,1.4l0.7-0.7c0.2-0.2,0.5-0.2,0.7,0s0.2,0.5,0,0.7l-0.7,0.7c0.8,0.9,1.3,2.1,1.4,3.4h1
		C19.4,11.5,19.6,11.7,19.6,12L19.6,12z"/>
	<path d="M12.6,13.9V17c1-0.1,1.9-0.5,2.6-1.1L13,13.7C12.9,13.8,12.7,13.9,12.6,13.9z"/>
	<path d="M13.8,13l2.2,2.2c0.6-0.7,1-1.6,1.1-2.6H14C13.9,12.7,13.9,12.8,13.8,13z"/>
</g>
</svg>
