<?xml version="1.0" encoding="utf-8"?>
<!-- Generator: Adobe Illustrator 19.2.1, SVG Export Plug-In . SVG Version: 6.00 Build 0)  -->
<svg version="1.1" id="Layer_1" xmlns="http://www.w3.org/2000/svg" xmlns:xlink="http://www.w3.org/1999/xlink" x="0px" y="0px"
	 viewBox="0 0 24 24" style="enable-background:new 0 0 24 24;" xml:space="preserve">
<g>
	<polygon points="10.8,8.6 10.6,9.6 11.6,9 	"/>
	<polygon points="12.9,10.1 11.1,10.1 12,10.6 	"/>
	<polygon points="13.3,9.6 13.1,8.6 12.3,9 	"/>
	<polygon points="12.9,9.7 12,9.2 11,9.7 	"/>
	<polygon points="12.8,6.2 14,6.2 12.7,5.8 11.3,5.8 9.9,6.2 11.1,6.2 	"/>
	<polygon points="12,12.8 13.6,11.9 12,11 10.3,11.9 	"/>
	<polygon points="12.9,8.3 12,7.7 11,8.3 12,8.8 	"/>
	<polygon points="12.8,7.2 12.3,7.5 13,8 	"/>
	<polygon points="13.7,11.5 13.4,10.2 12.3,10.8 	"/>
	<polygon points="11,8 11.7,7.5 11.1,7.2 	"/>
	<polygon points="11.3,6.6 11.2,6.8 12,7.3 12.7,6.8 12.7,6.6 	"/>
	<polygon points="13.7,9.7 15.2,9.7 13.6,9.4 	"/>
	<polygon points="14.2,14 13.8,12.1 12.3,13 	"/>
	<path d="M23.5,10.3l-4.3-7.4c-0.6-1-1.7-1.7-2.9-1.7H7.8c-1.2,0-2.3,0.6-2.9,1.7l-4.3,7.4c-0.6,1-0.6,2.3,0,3.4l4.3,7.4
		c0.6,1,1.7,1.7,2.9,1.7h8.6c1.2,0,2.3-0.6,2.9-1.7l4.3-7.4C24.2,12.6,24.2,11.4,23.5,10.3z M16.9,10.6c0,0.1-0.1,0.2-0.2,0.2
		s-0.2-0.1-0.2-0.2v-0.5h-1.2v0.5c0,0.1-0.1,0.2-0.2,0.2S15,10.7,15,10.6v-0.5h-1.3l1.6,7.5c0,0.1,0,0.1-0.1,0.2c0,0-0.1,0-0.1,0
		c0,0-0.1,0-0.1,0L12,16l-3.1,1.8l0,0c0,0,0,0-0.1,0c0,0,0,0,0,0c-0.1,0-0.1-0.1-0.1-0.2c0,0,0,0,0,0l0.7-3.3l0.9-4.2H9v0.5
		c0,0.1-0.1,0.2-0.2,0.2s-0.2-0.1-0.2-0.2v-0.5H7.5v0.5c0,0.1-0.1,0.2-0.2,0.2s-0.2-0.1-0.2-0.2V9.9c0,0,0,0,0,0c0,0,0,0,0-0.1
		c0,0,0,0,0,0c0,0,0,0,0,0L10.4,9l0.5-2.5H9v0.5c0,0.1-0.1,0.2-0.2,0.2S8.6,7.2,8.6,7.1V6.4c0,0,0,0,0,0c0,0,0,0,0-0.1c0,0,0,0,0,0
		c0,0,0,0,0,0l2.4-0.7c0,0,0,0,0,0h1.4c0,0,0,0,0,0l2.5,0.7c0,0,0,0,0,0c0,0,0,0,0,0c0,0,0,0,0,0.1c0,0,0,0,0,0v0.7
		c0,0.1-0.1,0.2-0.2,0.2S15,7.2,15,7.1V6.6h-2L13.5,9l3.2,0.7c0,0,0,0,0,0c0,0,0,0,0,0c0,0,0,0,0,0.1c0,0,0,0,0,0V10.6z"/>
	<polygon points="14.9,17.3 14.3,14.6 12.3,15.8 	"/>
	<polygon points="11.6,10.8 10.5,10.1 10.2,11.5 	"/>
	<polygon points="10.3,9.4 8.8,9.7 10.3,9.7 	"/>
	<polygon points="12,13.1 9.8,14.3 12,15.6 14.1,14.3 	"/>
	<polygon points="10.1,12.1 9.7,14 11.6,13 	"/>
	<polygon points="9,17.3 11.6,15.8 9.6,14.6 	"/>
</g>
</svg>
